<?xml version="1.0" encoding="UTF-8"?>
<svg width="210px" height="80px" viewBox="0 0 210 80" version="1.1" xmlns="http://www.w3.org/2000/svg" xmlns:xlink="http://www.w3.org/1999/xlink">
    <!-- Generator: Sketch 46.2 (44496) - http://www.bohemiancoding.com/sketch -->
    <title>Univelcity Primary Alt 3</title>
    <desc>Created with Sketch.</desc>
    <defs></defs>
    <g id="Page-1" stroke="none" stroke-width="1" fill="none" fill-rule="evenodd">
        <g id="Store" transform="translate(-150.000000, -10.000000)" fill-rule="nonzero" fill="#283459">
            <g id="Group-37" transform="translate(1.000000, 0.000000)">
                <g id="Group-36" transform="translate(149.000000, 10.000000)">
                    <g id="Univelcity-Primary-Alt-3">
                        <g id="Group-2">
                            <path d="M67.2994083,12.6011834 C67.2994083,13.339645 67.2994083,13.8461538 67.2994083,14.3526627 C67.2994083,24.9467456 67.2994083,35.5360947 67.2994083,46.1301775 C67.2420836,62.5846495 55.2577358,76.5680594 39.0059172,79.1431953 C21.0177515,82.0307692 3.55029586,69.2970414 0.889940828,51.2994083 C0.580106831,49.0089539 0.432992722,46.6994206 0.449704142,44.3881657 C0.402366864,34.4142012 0.449704142,24.435503 0.397633136,14.4615385 C0.397633136,12.9798817 0.790532544,12.5680473 2.29112426,12.5680473 C23.3719921,12.6185404 44.4544379,12.6311637 65.5384615,12.6059172 L67.2994083,12.6011834 Z M6.53727811,18.8260355 C6.53727811,27.8201183 6.49940828,36.5964497 6.56568047,45.3822485 C6.58079917,47.4852658 6.78357592,49.5827379 7.17159763,51.6497041 C7.85127801,55.2471471 9.33340004,58.6450251 11.5076923,61.5905325 C17.7183432,57.7088757 23.8153846,53.8934911 29.912426,50.087574 C39.7996055,43.930572 49.6946746,37.7751479 59.5976331,31.6213018 C60.7005917,30.939645 61.2733728,30.2295858 61.2071006,28.8284024 C61.0698225,26.0591716 61.1692308,23.2804734 61.1597633,20.5065089 C61.1597633,19.9621302 61.0887574,19.4177515 61.0508876,18.835503 L6.53727811,18.8260355 Z M15.3420118,65.9266272 C21.9455621,72.5538462 33.1550296,75.5408284 43.5597633,71.6071006 C54.4473373,67.5076923 59.9715976,57.5431953 60.5727811,51.0201183 L36.1420118,66.2106509 L31.9431953,62.0118343 C32.3029586,61.7751479 32.6816568,61.5384615 33.0698225,61.2781065 C42.0134122,55.7207101 50.9538462,50.1601578 59.8911243,44.5964497 C60.364497,44.312426 61.0366864,43.9005917 61.060355,43.5171598 C61.1786982,41.5668639 61.1171598,39.6071006 61.1171598,37.3633136 L15.3420118,65.9266272 Z" id="Shape"></path>
                            <path d="M21.6378698,5.16449704 C21.5479553,7.62132472 19.5242032,9.56325002 17.0657577,9.55174404 C14.6073122,9.54023805 12.6018255,7.57945516 12.5349112,5.12189349 C12.4896866,3.46092597 13.3527067,1.90717094 14.7867082,1.06782706 C16.2207096,0.228483183 17.998036,0.236801403 19.4241183,1.08953101 C20.8502006,1.94226061 21.6986394,3.50402559 21.6378698,5.16449704 Z" id="Shape"></path>
                            <path d="M50.6508876,9.6 C49.4279743,9.61286596 48.251599,9.13176847 47.3881585,8.26565478 C46.524718,7.39954109 46.0472592,6.22168423 46.0639053,4.99881657 C46.1434764,2.52154778 48.174708,0.554512706 50.6532544,0.554512706 C53.1318008,0.554512706 55.1630325,2.52154778 55.2426036,4.99881657 C55.2566569,6.22173489 54.7777106,7.39880257 53.9138108,8.26448366 C53.0499109,9.13016475 51.8738322,9.61153443 50.6508876,9.6 L50.6508876,9.6 Z" id="Shape"></path>
                            <polygon id="Shape" points="39.8911243 9.61893491 27.6781065 9.61893491 33.8650888 0.473372781"></polygon>
                            <path d="M14.1727811,24.5680473 L21.2733728,24.5680473 C21.2733728,27.9857988 21.164497,31.3183432 21.339645,34.6366864 C21.475569,35.7714072 21.9735542,36.8321158 22.7597633,37.6615385 C23.5976331,38.5751479 24.8994083,38.5846154 26.0733728,38.0071006 C27.2909761,37.4787162 28.0636175,36.2616184 28.0236686,34.9349112 C28.0236686,31.5455621 28.0236686,28.156213 28.0236686,24.6153846 L35.1857988,24.6153846 C35.1857988,25.5621302 35.1857988,26.5088757 35.1857988,27.4556213 C35.1100592,30.6887574 35.3278107,33.964497 34.8544379,37.1408284 C34.1207101,42.1017751 29.2686391,45.7514793 24.3408284,45.5195266 C19.0485207,45.2639053 14.5420118,41.2213018 14.2011834,36.0710059 C13.983432,32.2887574 14.1727811,28.4828402 14.1727811,24.5680473 Z" id="Shape"></path>
                        </g>
                        <g id="Group" transform="translate(79.053254, 28.875740)">
                            <path d="M7.20946746,14.2248521 C8.99881657,14.2248521 10.2390533,13.008284 10.2390533,10.9964497 L10.2390533,2.00236686 L14.2863905,2.00236686 L14.2863905,10.9964497 C14.2863905,15.0863905 11.5455621,17.6757396 7.18579882,17.6757396 C2.8260355,17.6757396 0,15.0863905 0,10.9964497 L0,2.00236686 L4.04733728,2.00236686 L4.04733728,10.9964497 C4.04733728,12.9893491 5.37278107,14.2248521 7.20946746,14.2248521 Z" id="Shape"></path>
                            <path d="M31.2426036,9.9408284 L31.2426036,17.5147929 L27.3278107,17.5147929 L27.3278107,11.0863905 C27.3278107,9.73727811 26.5325444,8.89940828 25.2923077,8.89940828 C23.9668639,8.89940828 23.1053254,9.84615385 22.9254438,11.1763314 L22.9254438,17.5147929 L19.0106509,17.5147929 L19.0106509,5.53846154 L22.9443787,5.53846154 L22.9443787,7.48402367 C23.7801737,6.11274429 25.2976333,5.30682073 26.9017751,5.38224852 C29.5147929,5.38224852 31.2426036,7.15266272 31.2426036,9.9408284 Z" id="Shape"></path>
                            <path d="M39.8153846,5.53846154 L39.8153846,17.5147929 L35.9005917,17.5147929 L35.9005917,5.53846154 L39.8153846,5.53846154 Z M39.6591716,2.17751479 C39.6461408,3.16255873 38.8393439,3.95178477 37.8542519,3.94312614 C36.8691598,3.93446751 36.0763606,3.13118155 36.0806469,2.14606076 C36.0849331,1.16093996 36.8846924,0.364583228 37.8698225,0.364497041 C38.3533903,0.348098027 38.8217848,0.534656534 39.1616602,0.87902764 C39.5015356,1.22339875 39.6819233,1.69420422 39.6591716,2.17751479 Z" id="Shape"></path>
                            <polygon id="Shape" points="47.2426036 5.53846154 49.7420118 13.8508876 52.260355 5.53846154 56.1940828 5.53846154 51.7112426 17.5147929 47.6639053 17.5147929 43.1952663 5.53846154"></polygon>
                            <path d="M70.4331361,12.5680473 L62.1207101,12.5680473 C62.3980222,13.8408351 63.5505925,14.7297325 64.852071,14.6745562 C65.9129118,14.6612119 66.9240866,14.2229793 67.6591716,13.4579882 L69.7136095,15.512426 C68.4970414,16.8852071 66.7076923,17.6331361 64.5065089,17.6331361 C60.591716,17.6331361 58.1822485,15.2236686 58.1822485,11.5739645 C58.1822485,7.92426036 60.6816568,5.42011834 64.416568,5.42011834 C68.5775148,5.40591716 70.7029586,8.21301775 70.4331361,12.5680473 Z M66.6461538,10.4662722 C66.6939165,9.85852914 66.479593,9.25935672 66.0572067,8.81978562 C65.6348205,8.38021451 65.0446668,8.14217931 64.435503,8.16568047 C63.1526627,8.16568047 62.3147929,9.11242604 62.0686391,10.4662722 L66.6461538,10.4662722 Z" id="Shape"></path>
                            <polygon id="Shape" points="78.504142 1.09349112 78.504142 17.5147929 74.5704142 17.5147929 74.5704142 1.09349112"></polygon>
                            <path d="M88.9940828,8.65325444 C87.5739645,8.65325444 86.6272189,9.82721893 86.6272189,11.5502959 C86.6272189,13.2733728 87.5976331,14.4473373 88.9940828,14.4473373 C89.9829619,14.5163106 90.916413,13.9842434 91.3609467,13.0982249 L94.2579882,14.7550296 C93.3112426,16.591716 91.3609467,17.6284024 88.8189349,17.6284024 C85.1266272,17.6284024 82.6650888,15.2189349 82.6650888,11.5692308 C82.6650888,7.91952663 85.1408284,5.41538462 88.8568047,5.41538462 C91.2662722,5.41538462 93.1692308,6.45680473 94.2059172,8.2556213 L91.3656805,9.91242604 C90.8489647,9.10769156 89.9501551,8.63047929 88.9940828,8.65325444 L88.9940828,8.65325444 Z" id="Shape"></path>
                            <path d="M101.936095,5.53846154 L101.936095,17.5147929 L98.0213018,17.5147929 L98.0213018,5.53846154 L101.936095,5.53846154 Z M101.779882,2.17751479 C101.766851,3.16255873 100.960054,3.95178477 99.9749619,3.94312614 C98.9898698,3.93446751 98.1970707,3.13118155 98.2013569,2.14606076 C98.2056432,1.16093996 99.0054024,0.364583228 99.9905325,0.364497041 C100.473292,0.349448584 100.940419,0.536602407 101.27924,0.880816084 C101.618061,1.22502976 101.797817,1.69505333 101.775148,2.17751479 L101.779882,2.17751479 Z" id="Shape"></path>
                            <path d="M114.71716,16.8804734 C113.726775,17.4173686 112.615203,17.6911868 111.488757,17.6757396 C109.169231,17.6757396 107.488757,16.3266272 107.488757,13.8508876 L107.488757,8.71952663 L105.831953,8.71952663 L105.831953,6.1112426 L107.488757,6.1112426 L107.488757,2.79763314 L111.40355,2.79763314 L111.40355,6.1112426 L114.499408,6.1112426 L114.499408,8.71952663 L111.40355,8.71952663 L111.40355,13.2544379 C111.40355,14.139645 111.801183,14.5372781 112.487574,14.5136095 C113.001967,14.4748111 113.50453,14.3399379 113.969231,14.1159763 L114.71716,16.8804734 Z" id="Shape"></path>
                            <path d="M120.350296,21.964497 C119.062502,21.9793118 117.810609,21.5402274 116.814201,20.7242604 L118.452071,18.0023669 C118.880151,18.415267 119.447991,18.651867 120.042604,18.6650888 C120.656058,18.6766267 121.216258,18.3180985 121.462722,17.756213 L121.751479,17.2023669 L116.814201,5.53846154 L120.861538,5.53846154 L123.701775,13.3207101 L126.243787,5.53846154 L130.177515,5.53846154 L125.046154,18.6698225 C124.132544,20.904142 122.60355,21.964497 120.350296,21.964497 Z" id="Shape"></path>
                        </g>
                    </g>
                </g>
            </g>
        </g>
    </g>
</svg>